<?xml version="1.0" encoding="UTF-8"?>
<svg id="Camada_2" data-name="Camada 2" xmlns="http://www.w3.org/2000/svg" viewBox="0 0 273.36 50.46">
  <defs>
    <style>
      .cls-1 {
        fill: #2e3c50;
      }

      .cls-1, .cls-2, .cls-3, .cls-4 {
        stroke-width: 0px;
      }

      .cls-2 {
        fill: #00cc5d;
      }

      .cls-3 {
        fill: #d9d9d9;
      }

      .cls-4 {
        fill: #397853;
      }
    </style>
  </defs>
  <g id="Camada_1-2" data-name="Camada 1">
    <g>
      <path class="cls-1" d="M0,0h35.5v3.83H0V0ZM15.38,1.69h4.67v45.56h-4.67V1.69Z"/>
      <path class="cls-1" d="M41.34,46.6c-1.9-.95-3.4-2.45-4.48-4.51-1.08-2.05-1.62-4.64-1.62-7.76V13.24h4.41v20.7c0,2.34.37,4.28,1.1,5.84.74,1.56,1.78,2.73,3.15,3.5,1.36.78,3.02,1.17,4.97,1.17,2.25,0,4.16-.49,5.74-1.46,1.58-.97,2.78-2.25,3.6-3.83.82-1.58,1.23-3.32,1.23-5.22V13.24h4.48v34.01h-4.28v-7.27l.65,1.04c-1.08,2.12-2.68,3.82-4.8,5.09-2.12,1.28-4.65,1.91-7.59,1.91-2.47,0-4.65-.48-6.56-1.43Z"/>
      <path class="cls-1" d="M75.09,13.24h4.22v10.9l-.52-.45c.61-2.29,1.61-4.32,3.02-6.07,1.41-1.75,3.12-3.03,5.13-3.83,2.01-.8,4.16-.92,6.46-.36l-.58,3.7c-2.51-.3-4.77.05-6.78,1.07-2.01,1.02-3.59,2.53-4.74,4.54-1.15,2.01-1.72,4.29-1.72,6.85v17.65h-4.48V13.24Z"/>
      <path class="cls-1" d="M100.27,13.24h4.22v7.27l-.65-1.04c1.12-2.12,2.75-3.82,4.87-5.09,2.12-1.28,4.65-1.91,7.59-1.91,2.47,0,4.64.48,6.52,1.43,1.88.95,3.37,2.46,4.48,4.51,1.1,2.06,1.65,4.64,1.65,7.76v21.09h-4.48v-20.7c0-2.34-.36-4.28-1.07-5.84-.71-1.56-1.75-2.73-3.12-3.5-1.36-.78-3.02-1.17-4.97-1.17-2.29,0-4.23.49-5.81,1.46-1.58.97-2.77,2.25-3.57,3.83-.8,1.58-1.2,3.32-1.2,5.22v20.7h-4.48V13.24Z"/>
      <path class="cls-1" d="M177.24,13.24h4.74l12.53,32.06h-2.53l12.53-32.06h4.02l-13.69,34.01h-3.89l-13.69-34.01Z"/>
      <path class="cls-1" d="M221.37,45.75c-2.64-1.51-4.72-3.63-6.23-6.36-1.51-2.73-2.27-5.8-2.27-9.22s.75-6.41,2.24-9.12c1.49-2.7,3.54-4.81,6.13-6.33,2.6-1.51,5.54-2.27,8.83-2.27s6.08.79,8.5,2.37c2.42,1.58,4.27,3.69,5.55,6.33,1.28,2.64,1.89,5.56,1.85,8.76h-31.02v-2.99h28.36l-1.75,1.62c-.09-2.51-.57-4.75-1.46-6.72-.89-1.97-2.19-3.53-3.89-4.67-1.71-1.15-3.75-1.72-6.13-1.72s-4.61.61-6.55,1.82c-1.95,1.21-3.47,2.91-4.58,5.09-1.1,2.19-1.66,4.73-1.66,7.63s.58,5.38,1.75,7.56c1.17,2.19,2.78,3.87,4.84,5.06,2.05,1.19,4.38,1.78,6.98,1.78,2.9,0,5.47-.71,7.72-2.14,2.25-1.43,4.04-3.33,5.39-5.71l2.21,1.17c-.69,1.73-1.77,3.39-3.24,4.97-1.47,1.58-3.3,2.87-5.48,3.86-2.19.99-4.58,1.49-7.17,1.49-3.29,0-6.25-.76-8.89-2.27Z"/>
      <path class="cls-1" d="M255.05,13.24h4.22v10.9l-.52-.45c.61-2.29,1.61-4.32,3.02-6.07,1.41-1.75,3.12-3.03,5.13-3.83,2.01-.8,4.16-.92,6.46-.36l-.58,3.7c-2.51-.3-4.77.05-6.78,1.07-2.01,1.02-3.59,2.53-4.74,4.54-1.15,2.01-1.72,4.29-1.72,6.85v17.65h-4.48V13.24Z"/>
      <path class="cls-4" d="M168.92,17.87c8.97,8.28,6.97,22.85-3.09,29.34-13.16,8.57-30.63-.8-30.89-16.46-.08-7.02,3.7-13.77,9.88-17.13,2.95-1.62,6.25-2.39,9.58-2.25.67.05,1.35.15,2.01.23.24.05.93.19,1.18.24l-.03.26-.78-.08c-10.79-.92-19.96,7.82-19.57,18.65.41,10.43,9.75,18.38,20.11,17.16,11.6-1.29,18.97-13.59,14.66-24.44-.77-1.95-1.87-3.76-3.25-5.34l.19-.17h0Z"/>
      <polygon class="cls-3" points="146 39.5 158.98 39.5 153.7 33.72 146 39.5"/>
      <g>
        <polygon class="cls-2" points="158.98 39.5 152.5 37.5 146 39.5 158.98 17.01 158.98 39.5"/>
        <polygon class="cls-1" points="152.5 37.5 158.98 17.01 158.98 39.5 152.5 37.5"/>
      </g>
    </g>
  </g>
</svg>